<?xml version="1.0" encoding="UTF-8"?>
<svg version="1.1" xmlns="http://www.w3.org/2000/svg" width="512" height="512">
<path d="M0 0 C3.15044985 0.00008061 6.30075227 -0.00677028 9.45117188 -0.02050781 C36.89019759 -0.13811045 64.17750025 0.73879644 91.45068359 3.99780273 C92.16091675 4.08111847 92.8711499 4.1644342 93.60290527 4.25027466 C149.26139147 10.82283698 149.26139147 10.82283698 159.96630859 23.79467773 C163.43772476 28.73288946 163.84612929 33.07924082 163.88818359 38.93530273 C163.91912109 39.94270508 163.91912109 39.94270508 163.95068359 40.97045898 C164.00610956 48.54996021 162.2613928 55.82509902 160.63818359 63.18530273 C160.39980774 64.27059265 160.39980774 64.27059265 160.15661621 65.37780762 C159.46831196 68.50558548 158.77649347 71.63257293 158.08236694 74.75906372 C152.84695217 98.3685513 148.48376058 122.03251051 144.96954346 145.9588623 C144.67459801 147.94063059 144.36425722 149.92009376 144.05175781 151.89916992 C140.57425649 174.19902082 141.29398943 196.85249702 141.43505859 219.35717773 C141.43946457 220.43004028 141.44387054 221.50290283 141.44841003 222.60827637 C140.89435679 231.95396413 140.89435679 231.95396413 143.63818359 240.18530273 C143.8510105 243.10576085 144.01519232 246.0108435 144.13818359 248.93530273 C144.41591752 256.11597394 144.41591752 256.11597394 145.63818359 263.18530273 C159.91041106 259.18767637 173.84171857 254.37543136 187.76855469 249.32495117 C214.48908891 239.68281088 214.48908891 239.68281088 226.32177734 244.21264648 C228.68751659 245.69277104 230.61645862 247.26268192 232.63818359 249.18530273 C233.71712891 250.20043945 233.71712891 250.20043945 234.81787109 251.23608398 C245.21957726 261.9616528 246.18794068 274.11664754 245.98193359 288.34155273 C245.03688508 312.47179147 229.52108801 331.68624699 212.55810547 347.47241211 C171.81426359 383.82271661 109.24635318 393.75008436 56.63818359 397.18530273 C55.48463379 397.27142822 54.33108398 397.35755371 53.14257812 397.44628906 C39.02181279 398.42538648 24.87720922 398.3727069 10.72998047 398.37060547 C7.85686871 398.37052481 4.98391848 398.37738498 2.11083984 398.39111328 C-23.05129233 398.50926235 -48.1429926 397.80679768 -73.11181641 394.37280273 C-74.3814624 394.20248535 -75.6511084 394.03216797 -76.95922852 393.85668945 C-123.67888248 387.38185186 -172.83142339 375.30029252 -207.36181641 341.18530273 C-208.14685547 340.47245117 -208.93189453 339.75959961 -209.74072266 339.02514648 C-219.68533223 329.77233584 -226.95095683 317.9875537 -231.36181641 305.18530273 C-231.83748047 303.9903418 -231.83748047 303.9903418 -232.32275391 302.77124023 C-236.43787616 290.87891446 -236.39580409 274.22748601 -231.61962891 262.58764648 C-227.45087854 254.62559221 -221.06266586 247.05492193 -212.73681641 243.24780273 C-188.81189504 235.78583895 -159.09761699 253.99973665 -138.36181641 264.18530273 C-138.28833984 262.4934082 -138.28833984 262.4934082 -138.21337891 260.76733398 C-138.13811944 259.17747784 -138.06258283 257.5876348 -137.98681641 255.99780273 C-137.95587891 255.26754883 -137.92494141 254.53729492 -137.89306641 253.78491211 C-137.6787688 249.40966932 -137.36103951 245.06146619 -136.88745117 240.70678711 C-135.39073359 226.79993136 -135.00127089 213.04244581 -135.04931641 199.06030273 C-135.05147156 197.92301727 -135.05362671 196.78573181 -135.05584717 195.61398315 C-135.1152013 175.97720074 -136.02106635 156.67582859 -138.36181641 137.18530273 C-138.45891907 136.35911438 -138.55602173 135.53292603 -138.65606689 134.68170166 C-140.81192123 116.35202366 -143.22611996 98.07332451 -146.52978516 79.91186523 C-146.71298813 78.90362701 -146.8961911 77.89538879 -147.08494568 76.8565979 C-147.9686553 72.0294136 -148.87658431 67.20838895 -149.8215332 62.39282227 C-151.40020497 54.17750274 -152.69198013 46.14573058 -152.77587891 37.76342773 C-152.78734955 37.08254089 -152.79882019 36.40165405 -152.81063843 35.70013428 C-152.73139545 30.29033288 -151.16618966 26.33863497 -147.70556641 22.20874023 C-128.01879964 4.60743605 -89.4039479 4.78348871 -64.29931641 2.49780273 C-63.29945206 2.40653107 -63.29945206 2.40653107 -62.27938843 2.31341553 C-58.3047709 1.95607057 -54.32877343 1.62989163 -50.34924316 1.33346558 C-48.43148264 1.19049636 -46.51430825 1.03973059 -44.59716797 0.88867188 C-29.7607975 -0.16954891 -14.86559543 -0.00195939 0 0 Z " fill="#424242" transform="translate(250.36181640625,64.814697265625)"/>
<path d="M0 0 C3.15044985 0.00008061 6.30075227 -0.00677028 9.45117188 -0.02050781 C36.89019759 -0.13811045 64.17750025 0.73879644 91.45068359 3.99780273 C92.16091675 4.08111847 92.8711499 4.1644342 93.60290527 4.25027466 C149.26139147 10.82283698 149.26139147 10.82283698 159.96630859 23.79467773 C163.43772476 28.73288946 163.84612929 33.07924082 163.88818359 38.93530273 C163.91912109 39.94270508 163.91912109 39.94270508 163.95068359 40.97045898 C164.00610956 48.54996021 162.2613928 55.82509902 160.63818359 63.18530273 C160.39980774 64.27059265 160.39980774 64.27059265 160.15661621 65.37780762 C159.46831196 68.50558548 158.77649347 71.63257293 158.08236694 74.75906372 C154.19506507 92.28913712 150.66007318 109.83791757 147.76318359 127.56030273 C147.55477844 128.81405701 147.55477844 128.81405701 147.34216309 130.09313965 C146.34859216 136.11192661 145.45769289 142.14040804 144.63818359 148.18530273 C144.49879364 149.20527344 144.35940369 150.22524414 144.21578979 151.27612305 C141.73293619 170.02179947 141.24947122 188.44948991 141.43218994 207.31231689 C141.46368212 210.92747394 141.4767466 214.54270242 141.49169922 218.15795898 C141.52323663 225.16725293 141.5756825 232.17620605 141.63818359 239.18530273 C134.37818359 239.18530273 127.11818359 239.18530273 119.63818359 239.18530273 C119.61526991 231.75950525 119.59706423 224.33372163 119.58637142 216.907897 C119.58123036 213.45697619 119.57430026 210.00608154 119.56274414 206.55517578 C119.49145335 184.65690863 119.72912626 162.8646239 122.04443359 141.07202148 C122.50420439 136.61954521 122.90845797 132.16431111 123.29443359 127.70483398 C124.53157724 113.53971241 126.07824847 99.53261714 128.28686523 85.4777832 C129.3013976 78.88507114 130.08310548 72.34680209 130.45068359 65.68530273 C130.4914502 64.95520996 130.5322168 64.22511719 130.57421875 63.47290039 C130.70297846 60.3789024 130.62734284 58.15278047 129.63818359 55.18530273 C120.7699181 52.22921424 109.94378902 54.44232864 100.82568359 55.49780273 C84.78192495 57.24205262 68.70230988 58.19096369 52.59204102 59.09472656 C43.90662968 59.58987441 35.21944809 60.0962187 26.56787109 61.02514648 C25.36114746 61.15139404 24.15442383 61.2776416 22.91113281 61.40771484 C17.91639447 62.59436572 14.5898241 64.66476945 11.86083984 69.02514648 C6.49986732 82.88146205 6.73397733 98.71086915 5.87207031 113.33959961 C5.65050104 116.98277195 5.40220518 120.62282713 5.14208984 124.26342773 C2.859175 156.65117597 1.65901916 189.13131195 0.97973633 221.59008789 C0.95538513 222.66102692 0.95538513 222.66102692 0.93054199 223.75360107 C0.88792921 225.64076265 0.84964547 227.52802066 0.81176758 229.4152832 C0.59939103 234.02782697 0.13827336 238.5962736 -0.36181641 243.18530273 C-26.54664601 243.40658778 -52.61826896 243.25961294 -78.76591492 241.7571106 C-89.057073 241.16432141 -89.057073 241.16432141 -99.36181641 241.18530273 C-101.01006294 242.83354927 -100.58782124 244.7898683 -100.67822266 247.06420898 C-100.72019775 248.11632568 -100.76217285 249.16844238 -100.80541992 250.25244141 C-100.84465576 251.40591064 -100.8838916 252.55937988 -100.92431641 253.74780273 C-100.98800415 255.51957886 -100.98800415 255.51957886 -101.05297852 257.32714844 C-101.52510427 271.94404782 -101.4543009 286.56279216 -101.36181641 301.18530273 C-108.19405992 300.58269723 -114.39040559 298.85188623 -120.92431641 296.81030273 C-121.9265625 296.50608398 -122.92880859 296.20186523 -123.96142578 295.88842773 C-129.23522352 294.26358419 -134.40211676 292.62093027 -139.36181641 290.18530273 C-140.57831935 287.75229684 -140.49503821 286.14849725 -140.48681641 283.43530273 C-140.48939453 282.59483398 -140.49197266 281.75436523 -140.49462891 280.88842773 C-140.36181641 278.18530273 -140.36181641 278.18530273 -139.88256836 275.37597656 C-139.39372821 272.38082799 -139.10316151 269.45760274 -138.89697266 266.43139648 C-138.81898438 265.32731445 -138.74099609 264.22323242 -138.66064453 263.08569336 C-138.58265625 261.94293945 -138.50466797 260.80018555 -138.42431641 259.62280273 C-137.54526229 246.75803679 -137.54526229 246.75803679 -136.8605957 240.4831543 C-135.37033614 226.65372986 -135.00153813 212.96467608 -135.04931641 199.06030273 C-135.05147156 197.92301727 -135.05362671 196.78573181 -135.05584717 195.61398315 C-135.1152013 175.97720074 -136.02106635 156.67582859 -138.36181641 137.18530273 C-138.5074704 135.9460202 -138.5074704 135.9460202 -138.65606689 134.68170166 C-140.81192123 116.35202366 -143.22611996 98.07332451 -146.52978516 79.91186523 C-146.71298813 78.90362701 -146.8961911 77.89538879 -147.08494568 76.8565979 C-147.9686553 72.0294136 -148.87658431 67.20838895 -149.8215332 62.39282227 C-151.40020497 54.17750274 -152.69198013 46.14573058 -152.77587891 37.76342773 C-152.78734955 37.08254089 -152.79882019 36.40165405 -152.81063843 35.70013428 C-152.73139545 30.29033288 -151.16618966 26.33863497 -147.70556641 22.20874023 C-128.01879964 4.60743605 -89.4039479 4.78348871 -64.29931641 2.49780273 C-63.29945206 2.40653107 -63.29945206 2.40653107 -62.27938843 2.31341553 C-58.3047709 1.95607057 -54.32877343 1.62989163 -50.34924316 1.33346558 C-48.43148264 1.19049636 -46.51430825 1.03973059 -44.59716797 0.88867188 C-29.7607975 -0.16954891 -14.86559543 -0.00195939 0 0 Z " fill="#424242" transform="translate(250.36181640625,64.814697265625)"/>
<path d="M0 0 C2.6959438 3.69407907 2.66791056 6.22075229 2.21484375 10.57421875 C2.15272705 11.36159424 2.09061035 12.14896973 2.02661133 12.96020508 C1.34373413 20.66379816 0.04086141 28.27811868 -1.18652344 35.90942383 C-3.37140138 50.2219434 -4.3904565 64.65374598 -5.5402832 79.07885742 C-5.6205777 80.08093231 -5.70087219 81.0830072 -5.78359985 82.115448 C-5.93418532 84.00781788 -6.08203271 85.90040839 -6.22665405 87.79324341 C-6.49594244 91.2145409 -6.7813695 94.56587858 -7.36645508 97.94946289 C-8.05505731 102.24213443 -8.20383976 106.52283146 -8.37890625 110.86328125 C-8.42043823 111.85639313 -8.46197021 112.849505 -8.50476074 113.87271118 C-9.09551921 129.0748666 -9.20978276 144.29110227 -9.39990234 159.50244141 C-9.43418202 162.22470322 -9.47104514 164.94690798 -9.51062012 167.6690979 C-9.54721701 170.20531487 -9.57966653 172.74159579 -9.60754395 175.27792358 C-9.62426147 176.40485626 -9.640979 177.53178894 -9.65820312 178.69287109 C-9.67699524 180.18432144 -9.67699524 180.18432144 -9.69616699 181.7059021 C-9.84765625 183.94921875 -9.84765625 183.94921875 -10.84765625 184.94921875 C-12.58401341 185.13198128 -14.32741639 185.2481467 -16.07104492 185.33813477 C-17.19987091 185.39810638 -18.3286969 185.458078 -19.49172974 185.51986694 C-20.73711517 185.5803421 -21.98250061 185.64081726 -23.265625 185.703125 C-25.21056351 185.80108871 -25.21056351 185.80108871 -27.1947937 185.90103149 C-30.73824047 186.07731851 -34.28204813 186.24486569 -37.82606888 186.40917587 C-40.02659344 186.51132128 -42.22702519 186.61532615 -44.42745972 186.71939087 C-72.91312198 188.05320989 -101.33071105 188.29506142 -129.84765625 187.94921875 C-129.15715549 147.10301123 -128.00516804 106.27682041 -125.09326172 65.52148438 C-124.83350005 61.74332064 -124.60555604 57.96411197 -124.3828125 54.18359375 C-122.09253078 16.21325961 -122.09253078 16.21325961 -114.84765625 8.94921875 C-102.4868591 0.3246688 -78.97363375 2.8649822 -64.53515625 1.94921875 C-42.07499545 0.5387535 -42.07499545 0.5387535 -19.68041992 -1.64086914 C-4.52861338 -3.26134708 -4.52861338 -3.26134708 0 0 Z " fill="#212121" transform="translate(379.84765625,120.05078125)"/>
<path d="M0 0 C1.54583267 -0.00404846 1.54583267 -0.00404846 3.12289429 -0.00817871 C10.20656553 0.02687803 10.20656553 0.02687803 11.3359375 1.15625 C11.49467715 2.65285727 11.5873056 4.15656001 11.65234375 5.66015625 C11.69464111 6.61768799 11.73693848 7.57521973 11.78051758 8.56176758 C11.98711418 14.09282483 12.17679198 19.6236027 12.3359375 25.15625 C12.37138672 26.29126953 12.40683594 27.42628906 12.44335938 28.59570312 C12.53630543 31.88675225 12.59779219 35.17680502 12.6484375 38.46875 C12.6781665 39.49363525 12.70789551 40.51852051 12.73852539 41.57446289 C12.7500061 43.00133423 12.7500061 43.00133423 12.76171875 44.45703125 C12.78359253 45.71253784 12.78359253 45.71253784 12.8059082 46.9934082 C12.3359375 49.15625 12.3359375 49.15625 10.70483398 50.8059082 C7.87479572 52.4191146 5.10314203 53.43906203 2.0078125 54.4609375 C1.39078964 54.66525391 0.77376678 54.86957031 0.13804626 55.08007812 C-1.87598411 55.74132789 -3.89419673 56.38805867 -5.9140625 57.03125 C-6.60801117 57.25379456 -7.30195984 57.47633911 -8.01693726 57.70562744 C-20.75180794 61.76795112 -33.48618007 64.8736407 -46.6640625 67.15625 C-47.63424316 67.33349609 -48.60442383 67.51074219 -49.60400391 67.69335938 C-106.04200712 77.91957484 -165.59084471 76.64954392 -221.9140625 66.21875 C-222.74309082 66.0731665 -223.57211914 65.92758301 -224.42626953 65.77758789 C-225.19052246 65.62539795 -225.95477539 65.47320801 -226.7421875 65.31640625 C-227.73847168 65.12510132 -227.73847168 65.12510132 -228.75488281 64.92993164 C-231.49280319 63.82040867 -232.85837371 62.49025804 -234.6640625 60.15625 C-235.1340332 57.37670898 -235.1340332 57.37670898 -235.08984375 54.15234375 C-235.07848389 52.34685059 -235.07848389 52.34685059 -235.06689453 50.50488281 C-235.03708496 49.21420898 -235.00727539 47.92353516 -234.9765625 46.59375 C-234.95818206 45.25750411 -234.94110764 43.92123966 -234.92529297 42.58496094 C-234.87757825 39.12982697 -234.80146275 35.67597494 -234.71478271 32.22161865 C-234.66496269 30.19290656 -234.62185094 28.16415593 -234.58056641 26.13525391 C-234.49941732 22.39160711 -234.39978353 18.64913003 -234.2890625 14.90625 C-234.25852783 13.75310303 -234.22799316 12.59995605 -234.1965332 11.41186523 C-234.1574585 10.35298096 -234.11838379 9.29409668 -234.078125 8.203125 C-234.0467041 7.27338867 -234.0152832 6.34365234 -233.98291016 5.38574219 C-233.6640625 3.15625 -233.6640625 3.15625 -231.6640625 1.15625 C-228.58569336 1.00512695 -228.58569336 1.00512695 -224.62890625 1.14453125 C-223.91738907 1.16718552 -223.20587189 1.18983978 -222.47279358 1.21318054 C-220.18193954 1.28877521 -217.89189357 1.3788149 -215.6015625 1.46875 C-214.11656609 1.51847122 -212.6315398 1.56730826 -211.14648438 1.61523438 C-205.45143504 1.80953221 -199.76299508 2.01581645 -194.07669067 2.39627075 C-182.37198404 3.17926417 -170.7050394 3.3353172 -158.9765625 3.359375 C-156.88994328 3.36618264 -154.80332423 3.37304017 -152.71670532 3.37994385 C-147.17498712 3.39561274 -141.63329903 3.40209791 -136.09156036 3.40463257 C-133.80184134 3.40571308 -131.51212253 3.40744508 -129.22240448 3.40982056 C-96.12349329 3.44344526 -63.15546204 2.93669071 -30.11151123 1.01422119 C-28.39342255 0.9143692 -28.39342255 0.9143692 -26.640625 0.8125 C-24.99963837 0.7167569 -24.99963837 0.7167569 -23.32550049 0.61907959 C-15.54839462 0.19190154 -7.78864035 0.01250755 0 0 Z " fill="#BA2F3C" transform="translate(382.6640625,303.84375)"/>
<path d="M0 0 C-0.89509547 5.62631437 -0.89509547 5.62631437 -1.52246094 7.86108398 C-2.55562486 12.48866532 -2.22805809 17.34224583 -2.25 22.0625 C-2.270625 23.14466797 -2.29125 24.22683594 -2.3125 25.34179688 C-2.41055057 45.77308338 7.17022834 62.68092056 21.09375 77.12109375 C37.72206827 93.83322411 60.51186243 106.13025563 83 113 C83.66741211 113.21043945 84.33482422 113.42087891 85.02246094 113.63769531 C112.87208179 122.34889465 141.04572819 126.4375449 170 129 C171.95075439 129.17789063 171.95075439 129.17789063 173.94091797 129.359375 C195.62093887 131.27609307 217.25631454 131.31832994 239 131 C240.10891602 130.98598145 241.21783203 130.97196289 242.36035156 130.95751953 C277.52611613 130.38268314 314.26035988 125.96355324 348 116 C349.18335938 115.66097656 350.36671875 115.32195312 351.5859375 114.97265625 C385.53153875 104.93411146 418.2918284 87.73142164 436.57421875 56.29296875 C442.34115605 45.29595617 444.18001542 34.59469677 444.1875 22.3125 C444.19974609 21.27416016 444.21199219 20.23582031 444.22460938 19.16601562 C444.23707648 12.53766944 443.58133578 6.43912763 442 0 C448.13513288 1.67321806 452.25510651 6.14222168 455.48828125 11.4375 C462.73140372 25.45368979 463.38847562 42.09594374 458.875 57.1875 C449.45179181 86.16462322 424.54455021 107.2774918 398.24267578 120.88232422 C359.33327017 140.27349109 315.1055789 148.18528362 272 151 C270.8464502 151.08612549 269.69290039 151.17225098 268.50439453 151.26098633 C254.38362919 152.24008374 240.23902563 152.18740416 226.09179688 152.18530273 C223.21868512 152.18522208 220.34573489 152.19208225 217.47265625 152.20581055 C192.31052408 152.32395961 167.2188238 151.62149494 142.25 148.1875 C140.980354 148.01718262 139.71070801 147.84686523 138.40258789 147.67138672 C91.68293393 141.19654913 42.53039301 129.11498979 8 95 C7.21496094 94.28714844 6.42992188 93.57429688 5.62109375 92.83984375 C-4.32351582 83.5870331 -11.58914043 71.80225096 -16 59 C-16.31710938 58.20335937 -16.63421875 57.40671875 -16.9609375 56.5859375 C-21.07671976 44.69170437 -21.02976473 28.05032018 -16.26171875 16.40625 C-13.42215744 10.99086372 -6.93161483 0 0 0 Z " fill="#737373" transform="translate(35,311)"/>
<path d="M0 0 C1.30066406 -0.02578125 2.60132813 -0.0515625 3.94140625 -0.078125 C7.7088732 0.27546966 8.75707811 0.71536039 11.4375 3.25 C14.11418261 10.00768392 13.78869025 17.96844252 13.75 25.125 C13.74581055 26.18348145 13.74162109 27.24196289 13.73730469 28.33251953 C13.63087875 35.67704148 12.99696613 42.31395759 10.4375 49.25 C10.17066406 50.07757813 9.90382813 50.90515625 9.62890625 51.7578125 C2.39609524 72.26684993 -16.2806709 88.92518565 -34.38574219 99.92382812 C-35.85662363 100.8199506 -37.31553322 101.73597883 -38.76269531 102.66992188 C-55.34622501 113.15646103 -71.72572015 112.44518442 -90.5625 111.25 C-91.64289551 111.1866748 -92.72329102 111.12334961 -93.83642578 111.05810547 C-104.53874964 110.37935236 -115.00597283 108.86181728 -125.49755859 106.66650391 C-127.68706404 106.22487512 -129.88182271 105.83382506 -132.08203125 105.44921875 C-159.37457814 100.55505618 -191.2506868 92.04791974 -212.5625 73.25 C-212.8925 72.26 -213.2225 71.27 -213.5625 70.25 C-212.29583496 70.18006836 -211.02916992 70.11013672 -209.72412109 70.03808594 C-185.20445626 68.6653084 -160.81412375 67.28897443 -136.5625 63.25 C-135.42603027 63.06179688 -134.28956055 62.87359375 -133.11865234 62.6796875 C-118.59485028 60.21349782 -104.52800689 56.94394588 -90.5625 52.25 C-89.33225098 51.83669434 -89.33225098 51.83669434 -88.07714844 51.41503906 C-79.75491174 49.25471921 -79.75491174 49.25471921 -72.5625 45.25 C-72.47523777 43.46928754 -72.45550959 41.6851686 -72.46484375 39.90234375 C-72.46806641 38.82275391 -72.47128906 37.74316406 -72.47460938 36.63085938 C-72.48298828 35.49455078 -72.49136719 34.35824219 -72.5 33.1875 C-72.50676758 31.47723633 -72.50676758 31.47723633 -72.51367188 29.73242188 C-72.52550253 26.90489649 -72.5419859 24.0774736 -72.5625 21.25 C-70.93729248 20.70826416 -69.31208445 20.16652985 -67.68687439 19.62480164 C-66.22606103 19.13785695 -64.76525603 18.65088718 -63.30445862 18.16389465 C-59.24149508 16.80944918 -55.17838143 15.45545691 -51.11499023 14.10229492 C-43.7415166 11.64637451 -36.36893803 9.18816967 -29.00390625 6.70703125 C-27.91078125 6.33964844 -26.81765625 5.97226562 -25.69140625 5.59375 C-23.69708272 4.92304756 -21.70354698 4.2499965 -19.7109375 3.57421875 C-18.82792969 3.27773438 -17.94492187 2.98125 -17.03515625 2.67578125 C-15.90992554 2.29546753 -15.90992554 2.29546753 -14.76196289 1.9074707 C-9.80942206 0.42704086 -5.16694282 0.06157231 0 0 Z " fill="#212121" transform="translate(466.5625,307.75)"/>
<path d="M0 0 C1.53992692 0.16219255 3.0805159 0.31822257 4.6217041 0.46795654 C6.8217917 0.68664906 9.01639719 0.93563821 11.21221924 1.19332886 C12.49588379 1.3347229 13.77954834 1.47611694 15.10211182 1.62179565 C19.22398355 2.75406101 20.84353498 4.25725996 23.50518799 7.55661011 C28.33121483 16.22373825 27.55357919 28.47175534 28.13018799 38.11911011 C28.2561065 40.11838647 28.38216624 42.11765395 28.50836182 44.11691284 C30.17510682 71.08776597 30.59144881 97.97674164 30.63018799 124.99411011 C30.63295746 126.27391754 30.63572693 127.55372498 30.63858032 128.87231445 C30.67617297 152.64441437 30.67617297 152.64441437 30.12237549 164.09176636 C30.09201202 164.80731186 30.06164856 165.52285736 30.03036499 166.26008606 C29.82551993 169.75822811 29.58688123 172.66497629 27.50518799 175.55661011 C17.6704414 178.83485897 3.95433316 176.38875404 -6.18231201 175.74411011 C-7.52540738 175.67307868 -8.86850633 175.60211496 -10.21160889 175.53121948 C-11.48455811 175.45065308 -12.75750732 175.37008667 -14.06903076 175.28707886 C-15.20944824 175.21900024 -16.34986572 175.15092163 -17.52484131 175.08078003 C-20.82549705 174.49824753 -22.1099462 173.87165426 -24.49481201 171.55661011 C-25.03157043 169.16026306 -25.03157043 169.16026306 -25.0848999 166.2795105 C-25.13018074 164.6502916 -25.13018074 164.6502916 -25.17637634 162.98815918 C-25.19671684 161.21413223 -25.19671684 161.21413223 -25.21746826 159.40426636 C-25.24790726 158.17404755 -25.27834625 156.94382874 -25.30970764 155.67633057 C-25.37412826 153.03248201 -25.43199127 150.38942232 -25.47912598 147.74530029 C-25.59185965 141.5364387 -25.76972434 135.3293314 -25.94762421 129.12204933 C-25.98694966 127.74839724 -26.02569012 126.37472828 -26.0638504 125.00104332 C-26.52643841 108.44289901 -27.75204298 92.02420629 -29.49481201 75.55661011 C-29.64866977 74.07614647 -29.80247713 72.59567759 -29.95623779 71.11520386 C-31.66819465 54.76840885 -33.61731265 38.47723609 -36.27581787 22.25363159 C-38.82957248 6.2093627 -38.82957248 6.2093627 -35.94012451 0.46676636 C-27.99724768 -5.73781315 -9.72166747 -1.02967628 0 0 Z " fill="#747474" transform="translate(174.49481201171875,122.44338989257813)"/>
<path d="M0 0 C2.90175661 0.0000809 5.80335408 -0.00682739 8.70507812 -0.02050781 C28.63415325 -0.11290008 48.3966665 0.5316549 68.2775116 1.93572998 C72.86709855 2.2542152 77.4586523 2.53358388 82.05107117 2.80776978 C137.23136197 6.36484024 137.23136197 6.36484024 147.87402344 17.18530273 C148.12402344 19.87280273 148.12402344 19.87280273 147.87402344 22.18530273 C115.0187357 41.45619266 64.48532866 38.29940148 27.28808594 38.38842773 C25.46775797 38.39536689 23.64743022 38.40236196 21.82710266 38.40940857 C16.05107361 38.42853183 10.27508043 38.43332394 4.49902344 38.43530273 C3.51761005 38.43603916 2.53619667 38.43677559 1.52504349 38.43753433 C-28.11907924 38.455669 -57.60490443 38.17727891 -87.12597656 35.18530273 C-88.35058594 35.06783691 -89.57519531 34.95037109 -90.83691406 34.8293457 C-101.23575593 33.79816724 -111.37690538 32.07580671 -121.56347656 29.74780273 C-122.41111572 29.55460449 -123.25875488 29.36140625 -124.13208008 29.16235352 C-130.27809488 27.64794778 -136.56129494 25.74998436 -141.12597656 21.18530273 C-140.9215781 18.64893237 -140.49393653 17.52424134 -138.61230469 15.79101562 C-133.42577469 12.61938258 -128.5598192 10.87270672 -122.62597656 9.62280273 C-121.69382324 9.41937256 -120.76166992 9.21594238 -119.80126953 9.00634766 C-80.57856793 0.89796048 -39.89777623 -0.00586337 0 0 Z " fill="#747474" transform="translate(250.1259765625,73.814697265625)"/>
<path d="M0 0 C0.0625 7.65625 0.0625 7.65625 -0.5 10.75 C-1.14526836 14.94424436 -0.82649672 18.96872268 -0.546875 23.1953125 C-1 26 -1 26 -2.8203125 28.00390625 C-7.44174453 30.9050755 -12.25803402 33.35167451 -17.125 35.8125 C-33.38017727 43.19872417 -33.38017727 43.19872417 -45 56 C-45.22858114 58.0374763 -45.41024278 60.08040303 -45.5625 62.125 C-45.64628906 63.22070312 -45.73007813 64.31640625 -45.81640625 65.4453125 C-45.90728516 66.70988281 -45.90728516 66.70988281 -46 68 C-61.89047899 58.80024901 -73.55559456 40.59805196 -78.421875 23.2265625 C-78.61265625 22.49179687 -78.8034375 21.75703125 -79 21 C-79.17345947 20.41057617 -79.34691895 19.82115234 -79.52563477 19.21386719 C-80.54547832 14.45424735 -80.18473964 9.47220042 -80.1875 4.625 C-80.19974609 3.5009375 -80.21199219 2.376875 -80.22460938 1.21875 C-80.2343533 -4.27682607 -80.14517161 -8.85158813 -78 -14 C-77.83142517 -16.75065232 -77.83142517 -16.75065232 -78 -19 C-53.83994098 -30.59682833 -21.50913096 -10.56543122 0 0 Z " fill="#212121" transform="translate(112,329)"/>
<path d="M0 0 C1.95860962 0.06900513 1.95860962 0.06900513 3.95678711 0.1394043 C4.66354584 0.16160538 5.37030457 0.18380646 6.09848022 0.2066803 C8.39420454 0.28171681 10.68901631 0.37192228 12.98413086 0.46362305 C14.54604332 0.52027051 16.10797379 0.57642345 17.66992188 0.63208008 C20.72191387 0.74324277 23.77349057 0.86169084 26.82495117 0.98657227 C30.16661174 1.12324609 33.50851264 1.23704949 36.85131836 1.3425293 C38.35399487 1.40192423 39.85661096 1.46289005 41.35913086 1.52612305 C42.5953418 1.57510742 43.83155273 1.6240918 45.10522461 1.67456055 C48.30917907 2.21669986 49.0328741 2.57883128 50.92163086 5.15112305 C51.30931091 7.80076599 51.30931091 7.80076599 51.32568359 11.02783203 C51.33836777 12.23596054 51.35105194 13.44408905 51.36412048 14.68882751 C51.36118484 15.99509598 51.35824921 17.30136444 51.35522461 18.6472168 C51.35978582 20.00098432 51.36509121 21.35474952 51.37110901 22.70851135 C51.38004396 25.54567877 51.37761324 28.38256478 51.36767578 31.21972656 C51.3561897 34.85278343 51.37638834 38.48486781 51.40559292 42.1177969 C51.42395477 44.91370295 51.42366255 47.709376 51.4179554 50.50532722 C51.41772772 52.49507407 51.43462912 54.48479899 51.45176697 56.47447205 C51.43769554 58.29139305 51.43769554 58.29139305 51.42333984 60.14501953 C51.42317368 61.21074692 51.42300751 62.2764743 51.4228363 63.37449646 C50.79720993 66.84040219 49.68694388 68.03189742 46.92163086 70.15112305 C44.09350586 70.46362305 44.09350586 70.46362305 40.67163086 70.15112305 C40.03829834 70.09424316 39.40496582 70.03736328 38.75244141 69.97875977 C7.29276233 66.80294956 7.29276233 66.80294956 -4.07836914 62.15112305 C-6.39663462 58.67372483 -6.32459768 57.34612661 -6.30883789 53.24487305 C-6.30770996 52.03798828 -6.30658203 50.83110352 -6.30541992 49.58764648 C-6.29236816 48.28859375 -6.27931641 46.98954102 -6.26586914 45.65112305 C-6.25764401 44.31030424 -6.24967156 42.96948387 -6.24194336 41.62866211 C-6.17335572 32.38420546 -5.98819739 23.14137904 -5.70336914 13.90112305 C-5.67267334 12.74805664 -5.64197754 11.59499023 -5.61035156 10.40698242 C-5.57143799 9.34801758 -5.53252441 8.28905273 -5.49243164 7.19799805 C-5.46101074 6.26826172 -5.42958984 5.33852539 -5.3972168 4.38061523 C-4.86514207 0.66016619 -3.6419342 0.17878954 0 0 Z " fill="#EC6B65" transform="translate(154.078369140625,304.848876953125)"/>
<path d="M0 0 C-0.33 0.66 -0.66 1.32 -1 2 C-1.15461591 3.6549969 -1.25001203 5.31568544 -1.31640625 6.9765625 C-1.35838135 8.02545654 -1.40035645 9.07435059 -1.44360352 10.1550293 C-1.48283936 11.30011963 -1.5220752 12.44520996 -1.5625 13.625 C-1.62618774 15.39000854 -1.62618774 15.39000854 -1.69116211 17.19067383 C-2.16448248 31.79122629 -2.09238133 46.39380102 -2 61 C-8.83224352 60.39739449 -15.02858919 58.66658349 -21.5625 56.625 C-22.56474609 56.32078125 -23.56699219 56.0165625 -24.59960938 55.703125 C-29.87340712 54.07828146 -35.04030035 52.43562753 -40 50 C-41.21650295 47.56699411 -41.1332218 45.96319452 -41.125 43.25 C-41.12757812 42.40953125 -41.13015625 41.5690625 -41.1328125 40.703125 C-41 38 -41 38 -40.52294922 35.22363281 C-40.00729584 32.04497398 -39.71841438 28.93061151 -39.5 25.71875 C-39.4175 24.54699219 -39.335 23.37523437 -39.25 22.16796875 C-39.1675 20.95753906 -39.085 19.74710937 -39 18.5 C-38.83598333 16.09356792 -38.66940348 13.68730887 -38.5 11.28125 C-38.4278125 10.21970703 -38.355625 9.15816406 -38.28125 8.06445312 C-37.99890884 4.98811094 -37.67096987 2.01715726 -37 -1 C-27.62611073 -5.68694464 -10.08244095 -1.02086921 0 0 Z " fill="#BA303D" transform="translate(151,305)"/>
<path d="M0 0 C0.09260068 5.55604105 -0.24437427 9.73312281 -2 15 C-6.93289437 13.36254599 -11.85935736 11.70906195 -16.77734375 10.02734375 C-18.83070082 9.3306456 -20.88408666 8.63403228 -22.9375 7.9375 C-24.46793945 7.4105957 -24.46793945 7.4105957 -26.02929688 6.87304688 C-35.77290832 3.58372304 -44.82587812 1.64091827 -55.125 1.625 C-55.96675781 1.60050781 -56.80851562 1.57601563 -57.67578125 1.55078125 C-64.78773516 1.51770239 -69.7520314 3.52128712 -75.375 7.8125 C-77.51467856 10.69283652 -78.199684 13.53196402 -79 17 C-79.33 17 -79.66 17 -80 17 C-80.05831395 12.95839444 -80.09370212 8.91689795 -80.125 4.875 C-80.14175781 3.73289062 -80.15851563 2.59078125 -80.17578125 1.4140625 C-80.18222656 0.30546875 -80.18867187 -0.803125 -80.1953125 -1.9453125 C-80.20578613 -2.96125488 -80.21625977 -3.97719727 -80.22705078 -5.02392578 C-79.9780633 -8.28753589 -79.09226306 -10.92677136 -78 -14 C-77.83142517 -16.75065232 -77.83142517 -16.75065232 -78 -19 C-53.83994098 -30.59682833 -21.50913096 -10.56543122 0 0 Z " fill="#424242" transform="translate(112,329)"/>
<path d="M0 0 C1.30066406 -0.02578125 2.60132813 -0.0515625 3.94140625 -0.078125 C7.59630543 0.26490464 8.98413932 0.57090637 11.4375 3.25 C14.18727512 10.08552588 13.66103083 18.0225031 13.4375 25.25 C12.40625 24.755 11.375 24.26 10.3125 23.75 C-2.13754295 19.21679621 -16.16440878 23.37718582 -28.5625 26.25 C-29.78912354 26.53085449 -29.78912354 26.53085449 -31.04052734 26.81738281 C-44.73792185 29.99160391 -58.15242123 34.03973166 -71.5625 38.25 C-72.69730527 34.64006828 -72.66265767 31.2657673 -72.625 27.5 C-72.61597656 26.32953125 -72.60695313 25.1590625 -72.59765625 23.953125 C-72.58605469 23.06109375 -72.57445312 22.1690625 -72.5625 21.25 C-70.93729248 20.70826416 -69.31208445 20.16652985 -67.68687439 19.62480164 C-66.22606103 19.13785695 -64.76525603 18.65088718 -63.30445862 18.16389465 C-59.24149508 16.80944918 -55.17838143 15.45545691 -51.11499023 14.10229492 C-43.7415166 11.64637451 -36.36893803 9.18816967 -29.00390625 6.70703125 C-27.91078125 6.33964844 -26.81765625 5.97226562 -25.69140625 5.59375 C-23.69708272 4.92304756 -21.70354698 4.2499965 -19.7109375 3.57421875 C-18.82792969 3.27773438 -17.94492187 2.98125 -17.03515625 2.67578125 C-15.90992554 2.29546753 -15.90992554 2.29546753 -14.76196289 1.9074707 C-9.80942206 0.42704086 -5.16694282 0.06157231 0 0 Z " fill="#424141" transform="translate(466.5625,307.75)"/>
</svg>
